<svg width="116" height="97" viewBox="0 0 116 97" fill="none" xmlns="http://www.w3.org/2000/svg">
<path d="M23.3691 47.0586H78.8387C88.5141 47.0586 96.3576 54.9021 96.3576 64.5775V80.3516H40.888C31.2126 80.3516 23.3691 72.5081 23.3691 62.8327V47.0586Z" fill="url(#paint0_linear_732_57)"/>
<circle cx="70.6075" cy="25.0255" r="13.8829" fill="#9DA2FF"/>
<path d="M0 47.0586H40.369C53.9642 47.0586 64.9853 58.0797 64.9853 71.6749V80.3516H24.6163C11.0211 80.3516 0 69.3305 0 55.7353V47.0586Z" fill="url(#paint1_linear_732_57)"/>
<circle cx="32.644" cy="19.5072" r="19.5072" fill="#525BFF"/>
<circle cx="96.3373" cy="76.81" r="19.5072" fill="#525BFF"/>
<path d="M87.875 80.0312L91.4373 83.5935C92.628 84.7842 94.6241 84.5214 95.4661 83.0631L103.039 69.9473" stroke="white" stroke-width="3.8415" stroke-linecap="round"/>
<defs>
<linearGradient id="paint0_linear_732_57" x1="23.3691" y1="63.7051" x2="96.3576" y2="63.7051" gradientUnits="userSpaceOnUse">
<stop stop-color="white"/>
<stop offset="1" stop-color="#737AFF"/>
</linearGradient>
<linearGradient id="paint1_linear_732_57" x1="0" y1="63.7051" x2="64.9853" y2="63.7051" gradientUnits="userSpaceOnUse">
<stop stop-color="#8F95FF"/>
<stop offset="1" stop-color="#313CFF"/>
</linearGradient>
</defs>
</svg>
