<svg width="2288" height="1482" viewBox="0 0 2288 1482" fill="none" xmlns="http://www.w3.org/2000/svg">
<path d="M2286.12 1480.49C2234.93 1415.49 2067.19 1265.69 1805.8 1186.49C1479.06 1087.49 1126.82 1111.99 807.784 759.494C584.328 512.597 146.593 486.494 0.123003 474.494" stroke="black" stroke-opacity="0.05" stroke-width="3"/>
<path d="M2286.12 1440.49C2234.93 1375.49 2067.19 1225.69 1805.8 1146.49C1479.06 1047.49 1126.82 1071.99 807.784 719.494C584.328 472.597 146.593 446.494 0.123003 434.494" stroke="black" stroke-opacity="0.05" stroke-width="3"/>
<path d="M2286.12 1402.49C2234.93 1337.49 2067.19 1187.69 1805.8 1108.49C1479.06 1009.49 1126.82 1033.99 807.784 681.494C584.328 434.597 146.593 408.494 0.123003 396.494" stroke="black" stroke-opacity="0.05" stroke-width="3"/>
<path d="M2286.12 1360.49C2234.93 1295.49 2067.19 1145.69 1805.8 1066.49C1479.06 967.494 1126.82 991.994 807.784 639.494C584.328 392.597 146.593 366.494 0.123003 354.494" stroke="black" stroke-opacity="0.05" stroke-width="3"/>
<path d="M2286.12 1322.49C2234.93 1257.49 2067.19 1107.69 1805.8 1028.49C1479.06 929.494 1126.82 953.994 807.784 601.494C584.328 354.597 146.593 328.494 0.123003 316.494" stroke="black" stroke-opacity="0.05" stroke-width="3"/>
<path d="M2286.12 1282.49C2234.93 1217.49 2067.19 1067.69 1805.8 988.494C1479.06 889.494 1126.82 913.994 807.784 561.494C584.328 314.597 146.593 288.494 0.123047 276.494" stroke="black" stroke-opacity="0.05" stroke-width="3"/>
<path d="M2286.12 1244.49C2234.93 1179.49 2067.19 1029.69 1805.8 950.494C1479.06 851.494 1126.82 875.994 807.784 523.494C584.328 276.597 146.593 250.494 0.123003 238.494" stroke="black" stroke-opacity="0.05" stroke-width="3"/>
<path d="M2286.12 1214.49C2234.93 1149.49 2067.19 999.694 1805.8 920.494C1479.06 821.494 1126.82 845.994 807.784 493.494C584.328 246.597 146.593 220.494 0.123003 208.494" stroke="black" stroke-opacity="0.05" stroke-width="3"/>
<path d="M2286.12 1165.49C2234.93 1100.49 2067.19 950.694 1805.8 871.494C1479.06 772.494 1126.82 796.994 807.784 444.494C584.328 197.597 146.593 171.494 0.123003 159.494" stroke="black" stroke-opacity="0.05" stroke-width="3"/>
<path d="M2286.12 1125.49C2234.93 1060.49 2067.19 910.694 1805.8 831.494C1479.06 732.494 1126.82 756.994 807.784 404.494C584.328 157.597 146.593 131.494 0.123003 119.494" stroke="black" stroke-opacity="0.05" stroke-width="3"/>
<path d="M2286.12 1087.49C2234.93 1022.49 2067.19 872.694 1805.8 793.494C1479.06 694.494 1126.82 718.994 807.784 366.494C584.328 119.597 146.593 93.4941 0.123003 81.4941" stroke="black" stroke-opacity="0.05" stroke-width="3"/>
<path d="M2286.12 1045.49C2234.93 980.494 2067.19 830.694 1805.8 751.494C1479.06 652.494 1126.82 676.994 807.784 324.494C584.328 77.5972 146.593 51.4941 0.123003 39.4941" stroke="black" stroke-opacity="0.05" stroke-width="3"/>
<path d="M2286.12 1007.49C2234.93 942.494 2067.19 792.694 1805.8 713.494C1479.06 614.494 1126.82 638.994 807.784 286.494C584.328 39.5972 146.593 13.4941 0.123003 1.49414" stroke="black" stroke-opacity="0.05" stroke-width="3"/>
</svg>
